<?xml version="1.0" standalone="no"?>
<!DOCTYPE svg PUBLIC "-//W3C//DTD SVG 20010904//EN"
 "http://www.w3.org/TR/2001/REC-SVG-20010904/DTD/svg10.dtd">
<svg version="1.0" xmlns="http://www.w3.org/2000/svg"
 width="183.000000pt" height="94.000000pt" viewBox="0 0 183.000000 94.000000"
 preserveAspectRatio="xMidYMid meet">

<g transform="translate(0.000000,94.000000) scale(0.100000,-0.100000)"
fill="#000000" stroke="none">
<path d="M587 742 c-9 -10 -23 -36 -32 -57 -9 -22 -51 -108 -93 -192 -72 -142
-76 -153 -60 -169 9 -9 23 -14 32 -11 24 10 206 377 206 418 0 9 -7 20 -16 23
-21 8 -19 9 -37 -12z"/>
<path d="M955 680 c-4 -6 6 -13 24 -16 31 -6 31 -7 31 -70 0 -36 4 -64 10 -64
6 0 10 28 10 64 0 57 2 65 20 68 12 2 21 8 21 13 -1 14 -108 19 -116 5z"/>
<path d="M1337 684 c-10 -11 -8 -154 2 -154 5 0 11 33 13 73 5 69 0 95 -15 81z"/>
<path d="M1520 660 c0 -11 -7 -20 -15 -20 -8 0 -15 -4 -15 -10 0 -5 6 -10 14
-10 10 0 16 -13 18 -42 2 -23 8 -43 15 -45 8 -3 10 8 6 37 -4 30 -2 45 8 52
11 7 11 11 2 15 -7 2 -13 13 -13 24 0 10 -4 19 -10 19 -5 0 -10 -9 -10 -20z"/>
<path d="M1100 625 c-18 -22 -5 -45 30 -51 44 -9 38 -27 -7 -20 -35 6 -37 5
-19 -9 32 -24 86 -14 86 16 0 16 -33 39 -56 39 -15 0 -23 4 -19 11 4 6 19 7
36 4 30 -7 41 8 13 19 -26 10 -51 7 -64 -9z"/>
<path d="M1220 620 c-53 -53 17 -121 76 -75 18 15 16 15 -23 10 -28 -5 -43 -3
-43 4 0 6 11 11 23 11 13 0 32 9 42 20 38 41 -34 71 -75 30z m58 -12 c-3 -7
-18 -14 -34 -16 -28 -2 -28 -2 -10 13 24 18 49 20 44 3z"/>
<path d="M1377 622 c-22 -24 -21 -55 1 -75 52 -47 115 11 82 74 -14 25 -61 25
-83 1z m71 -28 c2 -11 -4 -26 -12 -33 -31 -26 -71 14 -45 45 17 21 53 14 57
-12z"/>
<path d="M752 618 c-19 -19 -14 -32 28 -73 22 -21 40 -42 40 -45 0 -4 -21 -21
-46 -39 -33 -24 -44 -39 -42 -55 5 -36 39 -29 111 24 83 61 90 77 52 104 -15
12 -48 38 -72 59 -49 41 -53 43 -71 25z"/>
<path d="M220 577 c-20 -17 -51 -44 -70 -59 l-35 -28 23 -17 c13 -10 44 -35
69 -56 26 -22 52 -36 60 -33 8 3 17 6 19 6 2 0 4 8 4 18 0 10 -16 33 -35 52
l-34 33 42 38 c35 32 40 40 31 56 -17 28 -36 26 -74 -10z"/>
<path d="M957 453 c-4 -3 -7 -39 -7 -80 l0 -73 39 0 c37 0 71 19 71 40 0 5 -7
16 -16 25 -13 12 -14 19 -5 28 20 20 12 38 -24 53 -38 16 -49 17 -58 7z m66
-30 c11 -10 -13 -33 -34 -33 -12 0 -19 7 -19 20 0 14 7 20 23 20 13 0 27 -3
30 -7z m1 -73 c13 -13 -3 -30 -30 -30 -19 0 -24 5 -24 26 0 22 3 24 23 19 12
-4 26 -11 31 -15z"/>
<path d="M1090 390 c-53 -53 17 -121 76 -75 18 15 16 15 -23 10 -28 -5 -43 -3
-43 4 0 6 11 11 23 11 13 0 32 9 42 20 38 41 -34 71 -75 30z m58 -12 c-3 -7
-18 -14 -34 -16 -28 -2 -28 -2 -10 13 24 18 49 20 44 3z"/>
<path d="M1190 368 c0 -54 12 -73 39 -65 12 3 21 1 21 -3 0 -22 -14 -40 -31
-40 -10 0 -19 -4 -19 -10 0 -5 11 -10 25 -10 33 0 48 32 49 102 1 65 -13 77
-29 23 -14 -50 -29 -49 -33 3 -2 23 -7 42 -13 42 -5 0 -9 -19 -9 -42z"/>
<path d="M1310 390 c-53 -53 17 -121 76 -75 18 15 16 15 -23 10 -28 -5 -43 -3
-43 4 0 6 11 11 23 11 13 0 32 9 42 20 38 41 -34 71 -75 30z m58 -12 c-3 -7
-18 -14 -34 -16 -28 -2 -28 -2 -10 13 24 18 49 20 44 3z"/>
<path d="M1415 393 c3 -8 5 -32 5 -54 0 -21 5 -39 10 -39 6 0 10 9 10 20 0 32
22 70 41 70 21 0 32 -29 23 -64 -4 -16 -2 -26 5 -26 16 0 25 49 15 79 -9 23
-15 26 -62 27 -42 0 -52 -2 -47 -13z"/>
<path d="M1570 390 c-53 -53 17 -121 76 -75 18 15 16 15 -23 10 -28 -5 -43 -3
-43 4 0 6 11 11 23 11 13 0 32 9 42 20 38 41 -34 71 -75 30z m58 -12 c-3 -7
-18 -14 -34 -16 -28 -2 -28 -2 -10 13 24 18 49 20 44 3z"/>
<path d="M344 85 c0 -50 1 -71 3 -48 2 23 2 64 0 90 -2 26 -3 8 -3 -42z"/>
</g>
</svg>
